<svg id="visual" viewBox="0 0 960 540" width="960" height="540" xmlns="http://www.w3.org/2000/svg" xmlns:xlink="http://www.w3.org/1999/xlink" version="1.1"><g stroke-width="1" stroke-linejoin="bevel"><path d="M492.6 272.6L440.4 227.4L448.4 324.6Z" fill="#297ea6" stroke="#297ea6"></path><path d="M440.4 227.4L386.1 275.4L448.4 324.6Z" fill="#205a7a" stroke="#205a7a"></path><path d="M492.6 272.6L537.6 202.4L440.4 227.4Z" fill="#00101c" stroke="#00101c"></path><path d="M386.1 275.4L341.1 348.7L448.4 324.6Z" fill="#19435d" stroke="#19435d"></path><path d="M537.6 202.4L432.4 147.3L440.4 227.4Z" fill="#112e42" stroke="#112e42"></path><path d="M440.4 227.4L336.1 167.3L386.1 275.4Z" fill="#205a7a" stroke="#205a7a"></path><path d="M386.1 275.4L309.1 315.6L341.1 348.7Z" fill="#0c2435" stroke="#0c2435"></path><path d="M259.8 272.4L309.1 315.6L386.1 275.4Z" fill="#277297" stroke="#277297"></path><path d="M414.4 462.9L391.4 407.7L342.1 484.9Z" fill="#19435d" stroke="#19435d"></path><path d="M341.1 348.7L391.4 407.7L448.4 324.6Z" fill="#277297" stroke="#277297"></path><path d="M558.6 382.7L592.9 243.4L492.6 272.6Z" fill="#1d4e6b" stroke="#1d4e6b"></path><path d="M558.6 382.7L492.6 272.6L448.4 324.6Z" fill="#15384f" stroke="#15384f"></path><path d="M492.6 272.6L592.9 243.4L537.6 202.4Z" fill="#0c2435" stroke="#0c2435"></path><path d="M432.4 147.3L336.1 167.3L440.4 227.4Z" fill="#081a28" stroke="#081a28"></path><path d="M507.6 459.9L558.6 382.7L448.4 324.6Z" fill="#00101c" stroke="#00101c"></path><path d="M557.6 84.1L487.6 110.3L537.6 202.4Z" fill="#297ea6" stroke="#297ea6"></path><path d="M537.6 202.4L487.6 110.3L432.4 147.3Z" fill="#112e42" stroke="#112e42"></path><path d="M432.4 147.3L376.1 56.1L336.1 167.3Z" fill="#0c2435" stroke="#0c2435"></path><path d="M336.1 167.3L259.8 272.4L386.1 275.4Z" fill="#00101c" stroke="#00101c"></path><path d="M342.1 484.9L391.4 407.7L341.1 348.7Z" fill="#205a7a" stroke="#205a7a"></path><path d="M246.8 394.7L341.1 348.7L309.1 315.6Z" fill="#081a28" stroke="#081a28"></path><path d="M391.4 407.7L507.6 459.9L448.4 324.6Z" fill="#00101c" stroke="#00101c"></path><path d="M414.4 462.9L507.6 459.9L391.4 407.7Z" fill="#00101c" stroke="#00101c"></path><path d="M218.8 185.3L245.8 269.6L259.8 272.4Z" fill="#112e42" stroke="#112e42"></path><path d="M220.5 353.6L246.8 394.7L309.1 315.6Z" fill="#205a7a" stroke="#205a7a"></path><path d="M557.6 84.1L473.4 78.1L487.6 110.3Z" fill="#205a7a" stroke="#205a7a"></path><path d="M487.6 110.3L473.4 78.1L432.4 147.3Z" fill="#205a7a" stroke="#205a7a"></path><path d="M654.9 393.7L639.9 350.6L558.6 382.7Z" fill="#19435d" stroke="#19435d"></path><path d="M558.6 382.7L639.9 350.6L592.9 243.4Z" fill="#081a28" stroke="#081a28"></path><path d="M658.2 190.4L612.9 137.3L592.9 243.4Z" fill="#1d4e6b" stroke="#1d4e6b"></path><path d="M592.9 243.4L612.9 137.3L537.6 202.4Z" fill="#0c2435" stroke="#0c2435"></path><path d="M593.9 108.1L557.6 84.1L537.6 202.4Z" fill="#297ea6" stroke="#297ea6"></path><path d="M612.9 137.3L593.9 108.1L537.6 202.4Z" fill="#246688" stroke="#246688"></path><path d="M473.4 78.1L376.1 56.1L432.4 147.3Z" fill="#246688" stroke="#246688"></path><path d="M336.1 167.3L218.8 185.3L259.8 272.4Z" fill="#112e42" stroke="#112e42"></path><path d="M404.4 0L376.1 56.1L473.4 78.1Z" fill="#19435d" stroke="#19435d"></path><path d="M220.5 353.6L309.1 315.6L259.8 272.4Z" fill="#0c2435" stroke="#0c2435"></path><path d="M673.2 307.6L658.2 190.4L592.9 243.4Z" fill="#297ea6" stroke="#297ea6"></path><path d="M678.2 38.1L610.9 0L593.9 108.1Z" fill="#246688" stroke="#246688"></path><path d="M639.9 350.6L673.2 307.6L592.9 243.4Z" fill="#15384f" stroke="#15384f"></path><path d="M246.8 394.7L342.1 484.9L341.1 348.7Z" fill="#15384f" stroke="#15384f"></path><path d="M414.4 462.9L433.4 540L507.6 459.9Z" fill="#112e42" stroke="#112e42"></path><path d="M245.8 269.6L220.5 353.6L259.8 272.4Z" fill="#15384f" stroke="#15384f"></path><path d="M657.2 400.7L654.9 393.7L558.6 382.7Z" fill="#112e42" stroke="#112e42"></path><path d="M639.9 350.6L654.9 393.7L673.2 307.6Z" fill="#205a7a" stroke="#205a7a"></path><path d="M244.8 98.1L218.8 185.3L336.1 167.3Z" fill="#1d4e6b" stroke="#1d4e6b"></path><path d="M75.3 316.6L140.5 379.7L220.5 353.6Z" fill="#205a7a" stroke="#205a7a"></path><path d="M621.9 497.9L657.2 400.7L558.6 382.7Z" fill="#081a28" stroke="#081a28"></path><path d="M654.9 393.7L761.5 296.6L673.2 307.6Z" fill="#1d4e6b" stroke="#1d4e6b"></path><path d="M192.5 133.3L202.5 195.4L218.8 185.3Z" fill="#0c2435" stroke="#0c2435"></path><path d="M218.8 185.3L202.5 195.4L245.8 269.6Z" fill="#297ea6" stroke="#297ea6"></path><path d="M342.1 484.9L433.4 540L414.4 462.9Z" fill="#277297" stroke="#277297"></path><path d="M507.6 459.9L621.9 497.9L558.6 382.7Z" fill="#205a7a" stroke="#205a7a"></path><path d="M376.1 56.1L244.8 98.1L336.1 167.3Z" fill="#19435d" stroke="#19435d"></path><path d="M673.2 307.6L701.2 184.3L658.2 190.4Z" fill="#1d4e6b" stroke="#1d4e6b"></path><path d="M658.2 190.4L701.2 184.3L612.9 137.3Z" fill="#112e42" stroke="#112e42"></path><path d="M761.5 296.6L701.2 184.3L673.2 307.6Z" fill="#1d4e6b" stroke="#1d4e6b"></path><path d="M433.4 540L528.6 540L507.6 459.9Z" fill="#1d4e6b" stroke="#1d4e6b"></path><path d="M494.6 0L404.4 0L473.4 78.1Z" fill="#277297" stroke="#277297"></path><path d="M376.1 56.1L303.1 0L244.8 98.1Z" fill="#277297" stroke="#277297"></path><path d="M557.6 84.1L494.6 0L473.4 78.1Z" fill="#15384f" stroke="#15384f"></path><path d="M610.9 0L494.6 0L557.6 84.1Z" fill="#00101c" stroke="#00101c"></path><path d="M610.9 0L557.6 84.1L593.9 108.1Z" fill="#246688" stroke="#246688"></path><path d="M528.6 540L621.9 497.9L507.6 459.9Z" fill="#205a7a" stroke="#205a7a"></path><path d="M288.8 540L332.1 540L342.1 484.9Z" fill="#297ea6" stroke="#297ea6"></path><path d="M342.1 484.9L332.1 540L433.4 540Z" fill="#0c2435" stroke="#0c2435"></path><path d="M217.8 502.9L342.1 484.9L246.8 394.7Z" fill="#081a28" stroke="#081a28"></path><path d="M244.8 98.1L192.5 133.3L218.8 185.3Z" fill="#112e42" stroke="#112e42"></path><path d="M140.5 379.7L201.5 441.9L220.5 353.6Z" fill="#112e42" stroke="#112e42"></path><path d="M220.5 353.6L201.5 441.9L246.8 394.7Z" fill="#19435d" stroke="#19435d"></path><path d="M220.5 353.6L245.8 269.6L75.3 316.6Z" fill="#297ea6" stroke="#297ea6"></path><path d="M621.9 497.9L687.2 453.9L657.2 400.7Z" fill="#0c2435" stroke="#0c2435"></path><path d="M782.5 433.9L761.5 296.6L654.9 393.7Z" fill="#246688" stroke="#246688"></path><path d="M217.8 502.9L288.8 540L342.1 484.9Z" fill="#246688" stroke="#246688"></path><path d="M404.4 0L303.1 0L376.1 56.1Z" fill="#081a28" stroke="#081a28"></path><path d="M172.5 0L136.5 113.1L192.5 133.3Z" fill="#246688" stroke="#246688"></path><path d="M782.5 433.9L654.9 393.7L657.2 400.7Z" fill="#0c2435" stroke="#0c2435"></path><path d="M201.5 441.9L217.8 502.9L246.8 394.7Z" fill="#19435d" stroke="#19435d"></path><path d="M75.3 316.6L245.8 269.6L202.5 195.4Z" fill="#297ea6" stroke="#297ea6"></path><path d="M201.5 441.9L93.3 540L217.8 502.9Z" fill="#246688" stroke="#246688"></path><path d="M678.2 38.1L612.9 137.3L701.2 184.3Z" fill="#081a28" stroke="#081a28"></path><path d="M678.2 38.1L593.9 108.1L612.9 137.3Z" fill="#277297" stroke="#277297"></path><path d="M303.1 0L256.8 0L244.8 98.1Z" fill="#15384f" stroke="#15384f"></path><path d="M621.9 497.9L647.9 540L687.2 453.9Z" fill="#246688" stroke="#246688"></path><path d="M687.2 453.9L782.5 433.9L657.2 400.7Z" fill="#081a28" stroke="#081a28"></path><path d="M528.6 540L647.9 540L621.9 497.9Z" fill="#112e42" stroke="#112e42"></path><path d="M795.5 69.1L678.2 38.1L701.2 184.3Z" fill="#277297" stroke="#277297"></path><path d="M93.3 540L220.5 540L217.8 502.9Z" fill="#0c2435" stroke="#0c2435"></path><path d="M217.8 502.9L220.5 540L288.8 540Z" fill="#19435d" stroke="#19435d"></path><path d="M172.5 0L192.5 133.3L244.8 98.1Z" fill="#0c2435" stroke="#0c2435"></path><path d="M192.5 133.3L136.5 113.1L202.5 195.4Z" fill="#112e42" stroke="#112e42"></path><path d="M647.9 540L691.2 540L687.2 453.9Z" fill="#205a7a" stroke="#205a7a"></path><path d="M913.7 275.6L800.5 201.4L761.5 296.6Z" fill="#0c2435" stroke="#0c2435"></path><path d="M761.5 296.6L800.5 201.4L701.2 184.3Z" fill="#297ea6" stroke="#297ea6"></path><path d="M795.5 69.1L690.2 0L678.2 38.1Z" fill="#277297" stroke="#277297"></path><path d="M678.2 38.1L690.2 0L610.9 0Z" fill="#277297" stroke="#277297"></path><path d="M65.3 186.4L75.3 316.6L202.5 195.4Z" fill="#1d4e6b" stroke="#1d4e6b"></path><path d="M41.3 469.9L93.3 540L201.5 441.9Z" fill="#205a7a" stroke="#205a7a"></path><path d="M691.2 540L782.5 433.9L687.2 453.9Z" fill="#297ea6" stroke="#297ea6"></path><path d="M800.5 201.4L799.5 147.3L701.2 184.3Z" fill="#19435d" stroke="#19435d"></path><path d="M75.3 316.6L67.3 348.7L140.5 379.7Z" fill="#19435d" stroke="#19435d"></path><path d="M256.8 0L172.5 0L244.8 98.1Z" fill="#277297" stroke="#277297"></path><path d="M64.3 169.3L65.3 186.4L136.5 113.1Z" fill="#277297" stroke="#277297"></path><path d="M136.5 113.1L65.3 186.4L202.5 195.4Z" fill="#0c2435" stroke="#0c2435"></path><path d="M75.3 316.6L0 273.4L67.3 348.7Z" fill="#205a7a" stroke="#205a7a"></path><path d="M49.3 86.1L64.3 169.3L136.5 113.1Z" fill="#15384f" stroke="#15384f"></path><path d="M0 268.6L0 273.4L75.3 316.6Z" fill="#246688" stroke="#246688"></path><path d="M899.7 432.9L827.5 382.7L782.5 433.9Z" fill="#081a28" stroke="#081a28"></path><path d="M782.5 433.9L827.5 382.7L761.5 296.6Z" fill="#246688" stroke="#246688"></path><path d="M800.5 201.4L833.7 145.3L799.5 147.3Z" fill="#246688" stroke="#246688"></path><path d="M833.7 145.3L795.5 69.1L799.5 147.3Z" fill="#081a28" stroke="#081a28"></path><path d="M799.5 147.3L795.5 69.1L701.2 184.3Z" fill="#15384f" stroke="#15384f"></path><path d="M873.7 199.4L833.7 145.3L800.5 201.4Z" fill="#0c2435" stroke="#0c2435"></path><path d="M827.5 382.7L852.7 351.7L761.5 296.6Z" fill="#277297" stroke="#277297"></path><path d="M172.5 0L113.3 0L136.5 113.1Z" fill="#246688" stroke="#246688"></path><path d="M913.7 275.6L873.7 199.4L800.5 201.4Z" fill="#277297" stroke="#277297"></path><path d="M877.7 0L797.5 0L795.5 69.1Z" fill="#112e42" stroke="#112e42"></path><path d="M113.3 0L49.3 86.1L136.5 113.1Z" fill="#00101c" stroke="#00101c"></path><path d="M0 268.6L75.3 316.6L65.3 186.4Z" fill="#205a7a" stroke="#205a7a"></path><path d="M41.3 469.9L201.5 441.9L140.5 379.7Z" fill="#00101c" stroke="#00101c"></path><path d="M0 268.6L65.3 186.4L0 150.3Z" fill="#277297" stroke="#277297"></path><path d="M67.3 348.7L41.3 469.9L140.5 379.7Z" fill="#297ea6" stroke="#297ea6"></path><path d="M0 150.3L65.3 186.4L64.3 169.3Z" fill="#15384f" stroke="#15384f"></path><path d="M0 380.7L41.3 469.9L67.3 348.7Z" fill="#205a7a" stroke="#205a7a"></path><path d="M795.5 69.1L797.5 0L690.2 0Z" fill="#0c2435" stroke="#0c2435"></path><path d="M877.7 100.1L795.5 69.1L833.7 145.3Z" fill="#297ea6" stroke="#297ea6"></path><path d="M0 273.4L0 380.7L67.3 348.7Z" fill="#297ea6" stroke="#297ea6"></path><path d="M0 102.1L0 150.3L49.3 86.1Z" fill="#297ea6" stroke="#297ea6"></path><path d="M49.3 86.1L0 150.3L64.3 169.3Z" fill="#15384f" stroke="#15384f"></path><path d="M691.2 540L823.5 540L782.5 433.9Z" fill="#15384f" stroke="#15384f"></path><path d="M827.5 382.7L899.7 432.9L852.7 351.7Z" fill="#297ea6" stroke="#297ea6"></path><path d="M873.7 199.4L877.7 100.1L833.7 145.3Z" fill="#1d4e6b" stroke="#1d4e6b"></path><path d="M852.7 351.7L913.7 275.6L761.5 296.6Z" fill="#112e42" stroke="#112e42"></path><path d="M873.7 199.4L960 130.3L877.7 100.1Z" fill="#00101c" stroke="#00101c"></path><path d="M960 316.6L913.7 275.6L852.7 351.7Z" fill="#205a7a" stroke="#205a7a"></path><path d="M0 0L0 102.1L49.3 86.1Z" fill="#277297" stroke="#277297"></path><path d="M0 380.7L0 459.9L41.3 469.9Z" fill="#297ea6" stroke="#297ea6"></path><path d="M41.3 469.9L0 540L93.3 540Z" fill="#297ea6" stroke="#297ea6"></path><path d="M823.5 540L899.7 432.9L782.5 433.9Z" fill="#297ea6" stroke="#297ea6"></path><path d="M823.5 540L871.7 540L899.7 432.9Z" fill="#1d4e6b" stroke="#1d4e6b"></path><path d="M960 30.1L877.7 0L877.7 100.1Z" fill="#246688" stroke="#246688"></path><path d="M877.7 100.1L877.7 0L795.5 69.1Z" fill="#297ea6" stroke="#297ea6"></path><path d="M0 459.9L0 540L41.3 469.9Z" fill="#112e42" stroke="#112e42"></path><path d="M960 316.6L960 242.4L913.7 275.6Z" fill="#0c2435" stroke="#0c2435"></path><path d="M913.7 275.6L960 242.4L873.7 199.4Z" fill="#15384f" stroke="#15384f"></path><path d="M960 316.6L852.7 351.7L960 360.7Z" fill="#1d4e6b" stroke="#1d4e6b"></path><path d="M960 360.7L852.7 351.7L899.7 432.9Z" fill="#15384f" stroke="#15384f"></path><path d="M113.3 0L0 0L49.3 86.1Z" fill="#19435d" stroke="#19435d"></path><path d="M960 469.9L960 360.7L899.7 432.9Z" fill="#1d4e6b" stroke="#1d4e6b"></path><path d="M960 242.4L960 130.3L873.7 199.4Z" fill="#112e42" stroke="#112e42"></path><path d="M871.7 540L960 469.9L899.7 432.9Z" fill="#246688" stroke="#246688"></path><path d="M960 130.3L960 30.1L877.7 100.1Z" fill="#297ea6" stroke="#297ea6"></path><path d="M871.7 540L960 540L960 469.9Z" fill="#19435d" stroke="#19435d"></path><path d="M960 30.1L960 0L877.7 0Z" fill="#297ea6" stroke="#297ea6"></path></g></svg>